# xmcd CD database file
#
# Track frame offsets:
#	150
#	17405
#	32013
#	45411
#	57801
#	74907
#	89041
#	106129
#	127349
#	145165
#	161234
#	179974
#	199099
#	216491
#	233423
#	249106
#	263755
#	283254
#	298965
#	315296
#
# Disc length: 4436 seconds
#
# Revision: 1
# Processed by: cddbd v1.5.2PL0 Copyright (c) Steve Scherf et al.
# Submitted via: CDex 1.70beta2
#
DISCID=37115214
DTITLE=Various Artist - 40 Salsas Colombianas Poderosas Disc 2
DYEAR=2008
DGENRE=Salsa
TTITLE0=Mujeres- Fruko
TTITLE1=Hombre Pobre Hombre Rico- Fruko
TTITLE2=Marcha- Fruko
TTITLE3=Te Traigo El Sabor- Fruko
TTITLE4=Teresa- La Organizacion
TTITLE5=Mambo Swing- La Organizacion
TTITLE6=Bendita Tu Luz- La Organizacion
TTITLE7=La Tortuga- Joe Arroyo
TTITLE8=Tal Para Cual- Joe Arroyo
TTITLE9=Sabre Olvidar- Joe Arroyo
TTITLE10=Ni Como Amiga Ni Como Amanti- Grupo Niche
TTITLE11=Culebra- Grupo Niche
TTITLE12=Te Mando Flores- La Organizacion
TTITLE13=Ay Amor, Cuando Hablan Las Miradas!- Orquesta Guayacan
TTITLE14=Cambiare Por Ti- Orquesta Guayacan
TTITLE15=Llorando- Son De Cali
TTITLE16=Han Cogido La Cosa- Latin Sound
TTITLE17=La Manola- La Organizacion
TTITLE18=El Flojo- La Organizacion
TTITLE19=Me Duele Hasta La Vida- La Organizacion
EXTD=YEAR: 2008
EXTT0=
EXTT1=
EXTT2=
EXTT3=
EXTT4=
EXTT5=
EXTT6=
EXTT7=
EXTT8=
EXTT9=
EXTT10=
EXTT11=
EXTT12=
EXTT13=
EXTT14=
EXTT15=
EXTT16=
EXTT17=
EXTT18=
EXTT19=
PLAYORDER=
